<?xml version="1.0" encoding="UTF-8" standalone="no"?>
<svg width="64px" height="59px" viewBox="0 0 64 59" version="1.1" xmlns="http://www.w3.org/2000/svg" xmlns:xlink="http://www.w3.org/1999/xlink">
    <!-- Generator: Sketch 44.1 (41455) - http://www.bohemiancoding.com/sketch -->
    <title>icons/actions/address</title>
    <desc>Created with Sketch.</desc>
    <defs></defs>
    <g id="Symbols" stroke="none" stroke-width="1" fill="none" fill-rule="evenodd">
        <g id="icons/actions/address" stroke-width="2">
            <path d="M62.9687788,22.6530622 L55.9756776,8.8161463 L55.9756776,8.57780403 C55.9756776,8.14988069 55.4180125,7.70331227 54.634936,7.70331227 L50.8499117,7.70331227 L50.8499117,2.88134648 C50.8499117,1.84110515 50.0142356,1.00046774 48.9860353,1.00046774 L45.7059423,1.00046774 C44.677742,1.00046774 43.8420659,1.84110515 43.8420659,2.88134648 L43.8420659,7.70331227 L9.36659677,7.70331227 C8.58208834,7.70331227 8.02490052,8.14949847 8.02490052,8.57780403 L8.02490052,8.81617521 L1.0308524,22.6530842 C1.15824648,23.0186049 1.66629307,23.3506151 2.34150801,23.3506151 L8.02461413,23.3506151 L8.02461413,56.1191213 C8.02461413,57.1587852 8.86067178,58 9.8884905,58 L54.1115149,58 C55.1393336,58 55.9753913,57.1587852 55.9753913,56.1191213 L55.9753913,23.3506151 L61.6581155,23.3506151 C62.333344,23.3506151 62.8413975,23.0185915 62.9687788,22.6530622 Z" id="Combined-Shape" stroke="#FEFEFE"></path>
            <path d="M19.5275294,39.5662903 L14.2324706,39.5662903 C12.6729412,39.5662903 11.4089412,38.3099355 11.4089412,36.7598387 L11.4089412,32.1759677 C11.4089412,30.6249355 12.6729412,29.3685806 14.2324706,29.3685806 L19.5275294,29.3685806 C21.0861176,29.3685806 22.3510588,30.6249355 22.3510588,32.1759677 L22.3510588,36.7598387 C22.3510588,38.3099355 21.0861176,39.5662903 19.5275294,39.5662903 Z" id="Stroke-7" stroke="#FEFEFE"></path>
            <path d="M48.5063529,39.5662903 L43.2112941,39.5662903 C41.6527059,39.5662903 40.3877647,38.3099355 40.3877647,36.7598387 L40.3877647,32.1759677 C40.3877647,30.6249355 41.6527059,29.3685806 43.2112941,29.3685806 L48.5063529,29.3685806 C50.0658824,29.3685806 51.3298824,30.6249355 51.3298824,32.1759677 L51.3298824,36.7598387 C51.3298824,38.3099355 50.0658824,39.5662903 48.5063529,39.5662903 Z" id="Stroke-11" stroke="#FEFEFE"></path>
            <path d="M36.5248,57.2966097 L26.2386824,57.2966097 L26.2386824,43.9603516 C26.2386824,43.7769968 26.3883294,43.6282548 26.5737412,43.6282548 L36.5248,43.6282548 C36.7092706,43.6282548 36.8589176,43.7769968 36.8589176,43.9603516 L36.8589176,56.9645129 C36.8589176,57.1478677 36.7092706,57.2966097 36.5248,57.2966097 Z" id="Stroke-15" stroke="#FEFEFE"></path>
            <path d="M43,7.8 L53.05,7.7" id="Line" stroke="#FFFFFF" stroke-linecap="square"></path>
            <path d="M7,23.3 L55,23.3" id="Line-Copy" stroke="#FFFFFF" stroke-linecap="square"></path>
        </g>
    </g>
</svg>