<?xml version="1.0" encoding="UTF-8" standalone="no"?>
<svg width="64px" height="59px" viewBox="0 0 64 59" version="1.1" xmlns="http://www.w3.org/2000/svg" xmlns:xlink="http://www.w3.org/1999/xlink">
    <!-- Generator: Sketch 44.1 (41455) - http://www.bohemiancoding.com/sketch -->
    <title>icons/actions/hold</title>
    <desc>Created with Sketch.</desc>
    <defs></defs>
    <g id="Symbols" stroke="none" stroke-width="1" fill="none" fill-rule="evenodd">
        <g id="icons/actions/hold" stroke="#FEFEFE" stroke-width="2">
            <g id="Page-1" transform="translate(5.000000, 2.000000)">
                <path d="M37.5407302,40.1596032 L17.3696984,40.1596032 C15.9222381,40.1596032 14.7506508,38.9871429 14.7506508,37.5405556 L14.7506508,17.3695238 C14.7506508,15.9229365 15.9222381,14.7504762 17.3696984,14.7504762 L37.5407302,14.7504762 C38.9873175,14.7504762 40.1597778,15.9229365 40.1597778,17.3695238 L40.1597778,37.5405556 C40.1597778,38.9871429 38.9873175,40.1596032 37.5407302,40.1596032 Z" id="Stroke-1"></path>
                <path d="M54.9098175,27.4548651 C54.9098175,42.6182778 42.617754,54.9094683 27.4552143,54.9094683 C12.2926746,54.9094683 0.000611111111,42.6182778 0.000611111111,27.4548651 C0.000611111111,12.2923254 12.2926746,0.000261904762 27.4552143,0.000261904762 C42.617754,0.000261904762 54.9098175,12.2923254 54.9098175,27.4548651 Z" id="Stroke-3" stroke-dasharray="6.173,6.173"></path>
            </g>
        </g>
    </g>
</svg>