<?xml version="1.0" encoding="UTF-8" standalone="no"?>
<svg width="64px" height="59px" viewBox="0 0 64 59" version="1.1" xmlns="http://www.w3.org/2000/svg" xmlns:xlink="http://www.w3.org/1999/xlink">
    <!-- Generator: Sketch 44.1 (41455) - http://www.bohemiancoding.com/sketch -->
    <title>icons/actions/printer</title>
    <desc>Created with Sketch.</desc>
    <defs></defs>
    <g id="Symbols" stroke="none" stroke-width="1" fill="none" fill-rule="evenodd">
        <g id="icons/actions/printer">
            <g id="Group-2" transform="translate(1.000000, 1.000000)">
                <path d="M45.1301875,36.9849814 L59.09375,36.9849814 C60.6989687,36.9849814 62,35.6875068 62,34.0866763 L62,17.5856593 C62,15.9848288 60.6989687,14.6873542 59.09375,14.6873542 L53.8734469,14.6873542 L53.8734469,2.89791864 C53.8734469,1.29805424 52.5714469,-0.000386440678 50.9671969,-0.000386440678 L11.0333844,-0.000386440678 C9.42816562,-0.000386440678 8.12713437,1.29805424 8.12713437,2.89791864 L8.12713437,14.6873542 L2.90625,14.6873542 C1.30103125,14.6873542 0,15.9848288 0,17.5856593 L0,34.0866763 C0,35.6875068 1.30103125,36.9849814 2.90625,36.9849814 L16.8707813,36.9849814 L16.8707813,29.6059932 L45.1301875,29.6059932 L45.1301875,36.9849814 Z" id="Combined-Shape" stroke="#FEFEFE" stroke-width="2"></path>
                <path d="M8.234375,14.4915254 L53.765625,14.4915254" id="Line" stroke="#FFFFFF" stroke-width="2" stroke-linecap="square"></path>
                <polygon id="Stroke-15" stroke="#FEFEFE" stroke-width="2" points="16.8707812 56.9428068 45.1301875 56.9428068 45.1301875 29.6059932 16.8707812 29.6059932"></polygon>
                <g id="Group-18" transform="translate(20.343750, 51.146197)" stroke="#FEFEFE" stroke-width="2">
                    <path d="M0.746421875,0.757713559 L20.5660781,0.757713559" id="Stroke-17"></path>
                </g>
                <g id="Group-21" transform="translate(20.343750, 46.315688)" stroke="#FEFEFE" stroke-width="2">
                    <path d="M0.746421875,0.892677966 L20.5660781,0.892677966" id="Stroke-20"></path>
                </g>
                <g id="Group-24" transform="translate(20.343750, 42.451281)" stroke="#FEFEFE" stroke-width="2">
                    <path d="M0.746421875,0.0614440678 L20.5660781,0.0614440678" id="Stroke-23"></path>
                </g>
                <g id="Group-27" transform="translate(20.343750, 37.620773)" stroke="#FEFEFE" stroke-width="2">
                    <path d="M0.746421875,0.195442373 L20.5660781,0.195442373" id="Stroke-26"></path>
                </g>
                <path d="M58.4845031,32.4931881 C58.4845031,33.2023068 57.9080969,33.7771373 57.1980031,33.7771373 C56.4859719,33.7771373 55.9105344,33.2023068 55.9105344,32.4931881 C55.9105344,31.7850356 56.4859719,31.2102051 57.1980031,31.2102051 C57.9080969,31.2102051 58.4845031,31.7850356 58.4845031,32.4931881" id="Fill-28" fill="#FEFEFE"></path>
                <path d="M54.87155,32.4931881 C54.87155,33.2023068 54.2951437,33.7771373 53.58505,33.7771373 C52.8730187,33.7771373 52.2975812,33.2023068 52.2975812,32.4931881 C52.2975812,31.7850356 52.8730187,31.2102051 53.58505,31.2102051 C54.2951437,31.2102051 54.87155,31.7850356 54.87155,32.4931881" id="Fill-29" fill="#FEFEFE"></path>
                <polygon id="Stroke-31" stroke="#FEFEFE" points="15.2045312 30.1644 46.7964375 30.1644 46.7964375 28.3887051 15.2045312 28.3887051"></polygon>
            </g>
        </g>
    </g>
</svg>