<?xml version="1.0" encoding="UTF-8" standalone="no"?>
<svg width="64px" height="59px" viewBox="0 0 64 59" version="1.1" xmlns="http://www.w3.org/2000/svg" xmlns:xlink="http://www.w3.org/1999/xlink">
    <!-- Generator: Sketch 44.1 (41455) - http://www.bohemiancoding.com/sketch -->
    <title>icons/actions/return</title>
    <desc>Created with Sketch.</desc>
    <defs>
        <polygon id="path-1" points="0.6147 0.895 31.7197 0.895 31.7197 31.9995 0.6147 31.9995"></polygon>
    </defs>
    <g id="Symbols" stroke="none" stroke-width="1" fill="none" fill-rule="evenodd">
        <g id="icons/actions/return">
            <g id="Page-1" transform="translate(1.000000, 13.000000)">
                <path d="M30.1669,16.5528 L-0.0001,16.5528" id="Stroke-1" stroke="#FEFEFE" stroke-width="2" stroke-linecap="round"></path>
                <path d="M-0.0001,16.5528 L8.8079,7.7448" id="Stroke-3" stroke="#FEFEFE" stroke-width="2" stroke-linecap="round"></path>
                <path d="M-0.0001,16.5528 L8.8079,25.3608" id="Stroke-5" stroke="#FEFEFE" stroke-width="2" stroke-linecap="round"></path>
                <g id="Group-9" transform="translate(14.000000, 0.105500)">
                    <mask id="mask-2" fill="white">
                        <use xlink:href="#path-1"></use>
                    </mask>
                    <g id="Clip-8"></g>
                    <path d="M27.7197,0.8945 L4.6147,0.8945 C2.4077,0.8945 0.6147,2.6885 0.6147,4.8945 L0.6147,13.4565 L2.6147,13.4565 L2.6147,4.8945 C2.6147,3.7915 3.5117,2.8945 4.6147,2.8945 L27.7197,2.8945 C28.8227,2.8945 29.7197,3.7915 29.7197,4.8945 L29.7197,27.9995 C29.7197,29.1025 28.8227,29.9995 27.7197,29.9995 L4.6147,29.9995 C3.5117,29.9995 2.6147,29.1025 2.6147,27.9995 L2.6147,19.4705 L0.6147,19.4705 L0.6147,27.9995 C0.6147,30.2065 2.4077,31.9995 4.6147,31.9995 L27.7197,31.9995 C29.9257,31.9995 31.7197,30.2065 31.7197,27.9995 L31.7197,4.8945 C31.7197,2.6885 29.9257,0.8945 27.7197,0.8945" id="Fill-7" fill="#FEFEFE" mask="url(#mask-2)"></path>
                </g>
            </g>
        </g>
    </g>
</svg>